<svg width="24" height="24" viewBox="0 0 24 24" fill="none" xmlns="http://www.w3.org/2000/svg">
    <path fill-rule="evenodd" clip-rule="evenodd" d="M22.4531 9.74053L22.5422 10.303C22.6453 10.9218 22.6922 11.4772 22.6852 11.9952C22.6852 12.5179 22.6383 13.071 22.5398 13.6874L22.4508 14.2499L20.7328 14.8241C20.5828 15.2905 20.3953 15.7429 20.1727 16.1765L20.9836 17.796L20.6508 18.2601C20.2945 18.7499 19.9383 19.1765 19.5562 19.5585C19.1883 19.9335 18.7641 20.2921 18.2602 20.6554L17.7984 20.9882L16.1789 20.1772C15.7406 20.3976 15.2883 20.5851 14.8289 20.7351L14.257 22.4554L13.6945 22.5444C13.0758 22.6429 12.5227 22.6897 12 22.6897C11.4773 22.6897 10.9242 22.6429 10.3078 22.5444L9.74531 22.4554L9.17344 20.7351C8.70937 20.5874 8.25703 20.3976 7.82109 20.1749L6.20391 20.9858L5.74219 20.653C5.23359 20.2804 4.80938 19.9218 4.44609 19.5562C4.05703 19.1647 3.69844 18.7405 3.35156 18.2577L3.01875 17.7983L3.825 16.1835C3.60234 15.7499 3.41484 15.2952 3.26484 14.8312L1.54688 14.2569L1.45781 13.6944C1.35938 13.078 1.3125 12.5249 1.3125 11.9999C1.3125 11.4772 1.35938 10.9241 1.45781 10.303L1.54688 9.74053L3.26484 9.171C3.41484 8.70693 3.60234 8.25459 3.82266 7.821L3.01172 6.20146L3.34453 5.7374C4.01484 4.81396 4.82109 4.01006 5.73984 3.34443L6.20156 3.01162L7.81875 3.8249C8.24297 3.60928 8.69766 3.42178 9.17109 3.26709L9.74297 1.54678L10.3055 1.45771C10.9406 1.35693 11.4797 1.31006 12 1.31006C12.5344 1.31006 13.0711 1.35693 13.6922 1.45537L14.25 1.54209L14.8219 3.25537C15.2859 3.40537 15.7383 3.59287 16.1742 3.81553L17.7938 3.00459L18.2555 3.3374C19.1719 4.00303 19.9781 4.80928 20.6531 5.73037L20.9859 6.19443L20.175 7.81396C20.3977 8.24756 20.5852 8.70225 20.7352 9.16631L22.4531 9.74053ZM21.007 11.9929V11.9812C21.0117 11.6812 20.993 11.3647 20.9484 11.0132L20.1187 10.7366L19.3898 10.4929L19.1602 9.75928C19.0266 9.33037 18.8508 8.9085 18.6422 8.50537L18.2906 7.82803L19.0219 6.36318C18.607 5.8499 18.1383 5.3835 17.6273 4.97334L16.1625 5.70693L15.4828 5.35068C15.082 5.14443 14.6625 4.971 14.2359 4.8374L13.5023 4.61006L12.982 3.05615C12.6398 3.01631 12.3164 2.99521 12.0023 2.99521C11.6977 2.99521 11.3766 3.01631 11.0227 3.05615L10.7461 3.88584L10.5023 4.61475L9.76875 4.84443C9.33516 4.98037 8.91563 5.15381 8.52187 5.36006L7.83984 5.71865L6.37266 4.98506C5.86172 5.39522 5.39531 5.86162 4.98516 6.37256L5.37422 7.15303L5.71641 7.83975L5.36016 8.51943C5.15156 8.92256 4.97813 9.34209 4.84688 9.76631L4.61953 10.5022L3.06328 11.0202C3.02344 11.3647 3.00234 11.6858 3.00234 12.0022C3.00234 12.3187 3.02109 12.6421 3.06328 12.9843L4.62422 13.5022L4.85156 14.2405C4.97813 14.6577 5.15156 15.0749 5.36484 15.4827L5.72109 16.1624L4.98984 17.6272C5.20078 17.8944 5.41406 18.1358 5.64141 18.3632C5.86406 18.5858 6.10547 18.7991 6.37734 19.0147L7.15781 18.6257L7.84922 18.2812L8.53359 18.6374C8.91797 18.8413 9.33281 19.0124 9.76875 19.146L10.507 19.3733L10.7484 20.1069L11.025 20.9366C11.3695 20.9765 11.693 20.9976 12.007 20.9976C12.3234 20.9976 12.6469 20.9788 12.9891 20.9366L13.2656 20.1069L13.5047 19.3804L14.2383 19.1507C14.6672 19.0147 15.0891 18.8413 15.4898 18.6327L16.1695 18.2788L17.6344 19.0124C17.9062 18.7991 18.1477 18.5858 18.3656 18.3655L18.3703 18.3608C18.593 18.1382 18.8062 17.8968 19.0219 17.6249L18.2859 16.1554L18.6469 15.4733C18.8555 15.0796 19.0266 14.6647 19.1555 14.2382L19.3828 13.4999L20.1164 13.2515L20.9461 12.9749C20.9859 12.6304 21.007 12.3093 21.007 11.9929ZM12.0047 7.91475C9.75234 7.91475 7.91953 9.74756 7.91953 11.9999C7.91953 14.2522 9.75234 16.0851 12.0047 16.0851C14.257 16.0851 16.0898 14.2522 16.0898 11.9999C16.0898 9.74756 14.257 7.91475 12.0047 7.91475ZM12.0047 14.3976C12.6445 14.3976 13.2469 14.1468 13.6992 13.6944C14.1516 13.2421 14.4023 12.6397 14.4023 11.9999C14.4023 11.3601 14.1516 10.7601 13.6992 10.3054C13.2469 9.85068 12.6445 9.60225 12.0047 9.60225C11.3648 9.60225 10.7625 9.85303 10.3102 10.3054C9.85547 10.7577 9.60703 11.3601 9.60703 11.9999C9.60703 12.6397 9.85781 13.2421 10.3102 13.6944C10.7625 14.1491 11.3648 14.3976 12.0047 14.3976Z" fill="currentColor"/>
</svg>